<mxfile host="Electron" agent="Mozilla/5.0 (Windows NT 10.0; Win64; x64) AppleWebKit/537.36 (KHTML, like Gecko) draw.io/26.0.9 Chrome/128.0.6613.186 Electron/32.2.5 Safari/537.36" version="26.0.9">
  <diagram id="R2lEEEUBdFMjLlhIrx00" name="Page-1">
    <mxGraphModel dx="462" dy="280" grid="1" gridSize="10" guides="1" tooltips="1" connect="1" arrows="1" fold="1" page="1" pageScale="1" pageWidth="850" pageHeight="1100" math="0" shadow="0" extFonts="Permanent Marker^https://fonts.googleapis.com/css?family=Permanent+Marker">
      <root>
        <mxCell id="0" />
        <mxCell id="1" parent="0" />
        <mxCell id="lV51pXXIaA325RROSEWD-4" value="" style="group" parent="1" vertex="1" connectable="0">
          <mxGeometry x="480" y="240" width="200" height="160" as="geometry" />
        </mxCell>
        <mxCell id="lV51pXXIaA325RROSEWD-1" value="Article&amp;nbsp;" style="swimlane;whiteSpace=wrap;html=1;" parent="lV51pXXIaA325RROSEWD-4" vertex="1">
          <mxGeometry width="200" height="160" as="geometry" />
        </mxCell>
        <mxCell id="lV51pXXIaA325RROSEWD-3" value="&lt;u&gt;&lt;font face=&quot;monospace&quot;&gt;article_id&lt;br&gt;&lt;/font&gt;&lt;/u&gt;&lt;span style=&quot;font-family: monospace;&quot;&gt;article_type(enum)&lt;/span&gt;&lt;br style=&quot;font-family: monospace;&quot;&gt;&lt;div&gt;&lt;code data-end=&quot;458&quot; data-start=&quot;451&quot;&gt;&lt;font face=&quot;monospace&quot;&gt;title&lt;br&gt;&lt;/font&gt;&lt;/code&gt;&lt;code data-end=&quot;482&quot; data-start=&quot;473&quot;&gt;content&lt;br&gt;&lt;/code&gt;&lt;code data-end=&quot;506&quot; data-start=&quot;494&quot;&gt;created_at&lt;br&gt;&lt;/code&gt;&lt;font style=&quot;&quot; face=&quot;monospace&quot;&gt;author&lt;br&gt;likes&lt;br&gt;dislikes&lt;/font&gt;&lt;/div&gt;&lt;div&gt;&lt;font style=&quot;&quot; face=&quot;monospace&quot;&gt;&lt;br&gt;&lt;br&gt;&lt;/font&gt;&lt;/div&gt;" style="text;html=1;align=left;verticalAlign=top;whiteSpace=wrap;rounded=0;" parent="lV51pXXIaA325RROSEWD-1" vertex="1">
          <mxGeometry x="10" y="24" width="180" height="128" as="geometry" />
        </mxCell>
        <mxCell id="lV51pXXIaA325RROSEWD-8" value="" style="group" parent="1" vertex="1" connectable="0">
          <mxGeometry x="40" y="40" width="200" height="120" as="geometry" />
        </mxCell>
        <mxCell id="lV51pXXIaA325RROSEWD-9" value="Band Article" style="swimlane;whiteSpace=wrap;html=1;" parent="lV51pXXIaA325RROSEWD-8" vertex="1">
          <mxGeometry width="200" height="119.99999999999997" as="geometry" />
        </mxCell>
        <mxCell id="lV51pXXIaA325RROSEWD-10" value="&lt;u&gt;&lt;font face=&quot;monospace&quot;&gt;band_article_id&lt;br&gt;&lt;/font&gt;&lt;/u&gt;&lt;div&gt;&lt;code data-end=&quot;458&quot; data-start=&quot;451&quot;&gt;&lt;font face=&quot;monospace&quot;&gt;band_name&lt;br&gt;&lt;/font&gt;&lt;/code&gt;&lt;code data-end=&quot;482&quot; data-start=&quot;473&quot;&gt;genre&lt;br&gt;&lt;/code&gt;&lt;code data-end=&quot;506&quot; data-start=&quot;494&quot;&gt;formation_year&lt;br&gt;&lt;/code&gt;&lt;br&gt;&lt;/div&gt;&lt;div&gt;&lt;font style=&quot;&quot; face=&quot;monospace&quot;&gt;&lt;br&gt;&lt;br&gt;&lt;/font&gt;&lt;/div&gt;" style="text;html=1;align=left;verticalAlign=top;whiteSpace=wrap;rounded=0;" parent="lV51pXXIaA325RROSEWD-9" vertex="1">
          <mxGeometry x="10" y="18" width="180" height="91.09090909090908" as="geometry" />
        </mxCell>
        <mxCell id="lV51pXXIaA325RROSEWD-14" value="" style="group" parent="1" vertex="1" connectable="0">
          <mxGeometry x="40" y="200" width="200" height="120" as="geometry" />
        </mxCell>
        <mxCell id="lV51pXXIaA325RROSEWD-15" value="Album Article" style="swimlane;whiteSpace=wrap;html=1;" parent="lV51pXXIaA325RROSEWD-14" vertex="1">
          <mxGeometry width="200" height="120" as="geometry" />
        </mxCell>
        <mxCell id="lV51pXXIaA325RROSEWD-16" value="&lt;u&gt;&lt;font face=&quot;monospace&quot;&gt;album_article_id&lt;br&gt;&lt;/font&gt;&lt;/u&gt;&lt;div&gt;&lt;code data-end=&quot;458&quot; data-start=&quot;451&quot;&gt;&lt;font face=&quot;monospace&quot;&gt;band_name&lt;/font&gt;&lt;/code&gt;&lt;/div&gt;&lt;div&gt;&lt;code data-end=&quot;458&quot; data-start=&quot;451&quot;&gt;album_name&lt;font face=&quot;monospace&quot;&gt;&lt;br&gt;&lt;/font&gt;&lt;/code&gt;&lt;code data-end=&quot;482&quot; data-start=&quot;473&quot;&gt;genre&lt;br&gt;&lt;/code&gt;&lt;code data-end=&quot;506&quot; data-start=&quot;494&quot;&gt;release_year&lt;br&gt;&lt;/code&gt;&lt;br&gt;&lt;/div&gt;&lt;div&gt;&lt;font style=&quot;&quot; face=&quot;monospace&quot;&gt;&lt;br&gt;&lt;br&gt;&lt;/font&gt;&lt;/div&gt;" style="text;html=1;align=left;verticalAlign=top;whiteSpace=wrap;rounded=0;" parent="lV51pXXIaA325RROSEWD-15" vertex="1">
          <mxGeometry x="10" y="18" width="160" height="91.09" as="geometry" />
        </mxCell>
        <mxCell id="lV51pXXIaA325RROSEWD-17" value="" style="group" parent="1" vertex="1" connectable="0">
          <mxGeometry x="40" y="360" width="200" height="120" as="geometry" />
        </mxCell>
        <mxCell id="lV51pXXIaA325RROSEWD-18" value="Concert Article" style="swimlane;whiteSpace=wrap;html=1;" parent="lV51pXXIaA325RROSEWD-17" vertex="1">
          <mxGeometry width="200" height="120" as="geometry" />
        </mxCell>
        <mxCell id="lV51pXXIaA325RROSEWD-19" value="&lt;u&gt;&lt;font face=&quot;monospace&quot;&gt;concert_article_id&lt;br&gt;&lt;/font&gt;&lt;/u&gt;&lt;div&gt;&lt;code data-end=&quot;458&quot; data-start=&quot;451&quot;&gt;&lt;font face=&quot;monospace&quot;&gt;concert_name&lt;/font&gt;&lt;/code&gt;&lt;/div&gt;&lt;div&gt;&lt;code data-end=&quot;458&quot; data-start=&quot;451&quot;&gt;concert_date&lt;/code&gt;&lt;code data-end=&quot;482&quot; data-start=&quot;473&quot;&gt;&lt;br&gt;&lt;/code&gt;&lt;code data-end=&quot;506&quot; data-start=&quot;494&quot;&gt;venue&lt;br&gt;city&lt;br&gt;country&lt;br&gt;&lt;/code&gt;&lt;br&gt;&lt;/div&gt;&lt;div&gt;&lt;font style=&quot;&quot; face=&quot;monospace&quot;&gt;&lt;br&gt;&lt;br&gt;&lt;/font&gt;&lt;/div&gt;" style="text;html=1;align=left;verticalAlign=top;whiteSpace=wrap;rounded=0;" parent="lV51pXXIaA325RROSEWD-18" vertex="1">
          <mxGeometry x="10" y="16.2" width="180" height="81.98181818181818" as="geometry" />
        </mxCell>
        <mxCell id="lV51pXXIaA325RROSEWD-20" value="" style="group" parent="1" vertex="1" connectable="0">
          <mxGeometry x="40" y="520" width="200" height="110" as="geometry" />
        </mxCell>
        <mxCell id="lV51pXXIaA325RROSEWD-21" value="General Article" style="swimlane;whiteSpace=wrap;html=1;" parent="lV51pXXIaA325RROSEWD-20" vertex="1">
          <mxGeometry width="200" height="70" as="geometry" />
        </mxCell>
        <mxCell id="lV51pXXIaA325RROSEWD-22" value="&lt;u&gt;&lt;font face=&quot;monospace&quot;&gt;general_article_id&lt;br&gt;&lt;/font&gt;&lt;/u&gt;&lt;div&gt;&lt;code data-end=&quot;482&quot; data-start=&quot;473&quot;&gt;topic&lt;br&gt;&lt;/code&gt;&lt;br&gt;&lt;/div&gt;&lt;div&gt;&lt;font style=&quot;&quot; face=&quot;monospace&quot;&gt;&lt;br&gt;&lt;br&gt;&lt;/font&gt;&lt;/div&gt;" style="text;html=1;align=left;verticalAlign=top;whiteSpace=wrap;rounded=0;" parent="lV51pXXIaA325RROSEWD-21" vertex="1">
          <mxGeometry x="10" y="16.5" width="180" height="43.5" as="geometry" />
        </mxCell>
        <mxCell id="lV51pXXIaA325RROSEWD-80" value="" style="edgeStyle=orthogonalEdgeStyle;rounded=0;orthogonalLoop=1;jettySize=auto;html=1;endArrow=none;startFill=0;" parent="1" source="lV51pXXIaA325RROSEWD-6" target="lV51pXXIaA325RROSEWD-79" edge="1">
          <mxGeometry relative="1" as="geometry">
            <Array as="points">
              <mxPoint x="960" y="200" />
            </Array>
          </mxGeometry>
        </mxCell>
        <mxCell id="lV51pXXIaA325RROSEWD-90" value="" style="edgeStyle=orthogonalEdgeStyle;rounded=0;orthogonalLoop=1;jettySize=auto;html=1;endArrow=none;startFill=0;" parent="1" source="lV51pXXIaA325RROSEWD-6" target="lV51pXXIaA325RROSEWD-89" edge="1">
          <mxGeometry relative="1" as="geometry" />
        </mxCell>
        <mxCell id="lV51pXXIaA325RROSEWD-92" value="" style="edgeStyle=orthogonalEdgeStyle;rounded=0;orthogonalLoop=1;jettySize=auto;html=1;entryX=1;entryY=0.5;entryDx=0;entryDy=0;endArrow=none;startFill=0;" parent="1" target="lV51pXXIaA325RROSEWD-91" edge="1">
          <mxGeometry relative="1" as="geometry">
            <mxPoint x="960.0033333333333" y="400" as="sourcePoint" />
            <mxPoint x="880" y="440" as="targetPoint" />
            <Array as="points">
              <mxPoint x="960" y="440" />
            </Array>
          </mxGeometry>
        </mxCell>
        <mxCell id="lV51pXXIaA325RROSEWD-109" value="" style="edgeStyle=orthogonalEdgeStyle;rounded=0;orthogonalLoop=1;jettySize=auto;html=1;endArrow=none;startFill=0;" parent="1" source="lV51pXXIaA325RROSEWD-6" target="lV51pXXIaA325RROSEWD-108" edge="1">
          <mxGeometry relative="1" as="geometry">
            <Array as="points">
              <mxPoint x="1190" y="280" />
              <mxPoint x="1190" y="280" />
            </Array>
          </mxGeometry>
        </mxCell>
        <mxCell id="lV51pXXIaA325RROSEWD-116" value="" style="rounded=0;orthogonalLoop=1;jettySize=auto;html=1;endArrow=none;startFill=0;entryX=0;entryY=0.5;entryDx=0;entryDy=0;elbow=vertical;" parent="1" target="lV51pXXIaA325RROSEWD-115" edge="1">
          <mxGeometry relative="1" as="geometry">
            <mxPoint x="1119.9999999999998" y="359.9999999999999" as="sourcePoint" />
            <mxPoint x="1240" y="360" as="targetPoint" />
          </mxGeometry>
        </mxCell>
        <mxCell id="lV51pXXIaA325RROSEWD-124" value="" style="edgeStyle=orthogonalEdgeStyle;rounded=0;orthogonalLoop=1;jettySize=auto;html=1;endArrow=none;startFill=0;" parent="1" source="lV51pXXIaA325RROSEWD-6" target="lV51pXXIaA325RROSEWD-122" edge="1">
          <mxGeometry relative="1" as="geometry" />
        </mxCell>
        <mxCell id="lV51pXXIaA325RROSEWD-6" value="User" style="swimlane;whiteSpace=wrap;html=1;" parent="1" vertex="1">
          <mxGeometry x="920" y="240" width="200" height="160" as="geometry" />
        </mxCell>
        <mxCell id="lV51pXXIaA325RROSEWD-7" value="&lt;u&gt;&lt;font face=&quot;monospace&quot;&gt;user_id&lt;br&gt;&lt;/font&gt;&lt;/u&gt;&lt;div&gt;&lt;code data-end=&quot;458&quot; data-start=&quot;451&quot;&gt;username&lt;br&gt;email&lt;font face=&quot;monospace&quot;&gt;&lt;br&gt;&lt;/font&gt;&lt;/code&gt;&lt;code data-end=&quot;482&quot; data-start=&quot;473&quot;&gt;password_hash&lt;br&gt;&lt;/code&gt;&lt;code data-end=&quot;506&quot; data-start=&quot;494&quot;&gt;role(normie/admin)&lt;br&gt;&lt;/code&gt;&lt;font style=&quot;&quot; face=&quot;monospace&quot;&gt;created_at&lt;/font&gt;&lt;/div&gt;&lt;div&gt;&lt;font style=&quot;&quot; face=&quot;monospace&quot;&gt;badge{}&lt;/font&gt;&lt;/div&gt;&lt;div&gt;&lt;font style=&quot;&quot; face=&quot;monospace&quot;&gt;&lt;br&gt;&lt;br&gt;&lt;/font&gt;&lt;/div&gt;" style="text;html=1;align=left;verticalAlign=top;whiteSpace=wrap;rounded=0;" parent="lV51pXXIaA325RROSEWD-6" vertex="1">
          <mxGeometry x="10" y="22.5" width="180" height="120" as="geometry" />
        </mxCell>
        <mxCell id="lV51pXXIaA325RROSEWD-25" value="Forum Thread" style="swimlane;whiteSpace=wrap;html=1;" parent="1" vertex="1">
          <mxGeometry x="1200" y="40" width="200" height="100" as="geometry" />
        </mxCell>
        <mxCell id="lV51pXXIaA325RROSEWD-26" value="&lt;u&gt;&lt;font face=&quot;monospace&quot;&gt;thread_id&lt;br&gt;&lt;/font&gt;&lt;/u&gt;&lt;div&gt;&lt;code data-end=&quot;458&quot; data-start=&quot;451&quot;&gt;title&lt;br&gt;author&lt;br&gt;created_at&lt;/code&gt;&lt;code data-end=&quot;482&quot; data-start=&quot;473&quot;&gt;&lt;br&gt;&lt;/code&gt;&lt;br&gt;&lt;/div&gt;&lt;div&gt;&lt;font style=&quot;&quot; face=&quot;monospace&quot;&gt;&lt;br&gt;&lt;br&gt;&lt;/font&gt;&lt;/div&gt;" style="text;html=1;align=left;verticalAlign=top;whiteSpace=wrap;rounded=0;" parent="lV51pXXIaA325RROSEWD-25" vertex="1">
          <mxGeometry x="10" y="22.5" width="180" height="67.5" as="geometry" />
        </mxCell>
        <mxCell id="lV51pXXIaA325RROSEWD-27" value="Forum Post" style="swimlane;whiteSpace=wrap;html=1;" parent="1" vertex="1">
          <mxGeometry x="1200" y="480" width="200" height="100" as="geometry" />
        </mxCell>
        <mxCell id="lV51pXXIaA325RROSEWD-28" value="&lt;u&gt;&lt;font face=&quot;monospace&quot;&gt;post_id&lt;br&gt;&lt;/font&gt;&lt;/u&gt;&lt;div&gt;&lt;code data-end=&quot;458&quot; data-start=&quot;451&quot;&gt;content&lt;br&gt;author&lt;br&gt;created_at&lt;/code&gt;&lt;code data-end=&quot;482&quot; data-start=&quot;473&quot;&gt;&lt;br&gt;&lt;/code&gt;&lt;br&gt;&lt;/div&gt;&lt;div&gt;&lt;font style=&quot;&quot; face=&quot;monospace&quot;&gt;&lt;br&gt;&lt;br&gt;&lt;/font&gt;&lt;/div&gt;" style="text;html=1;align=left;verticalAlign=top;whiteSpace=wrap;rounded=0;" parent="lV51pXXIaA325RROSEWD-27" vertex="1">
          <mxGeometry x="10" y="22.5" width="180" height="67.5" as="geometry" />
        </mxCell>
        <mxCell id="lV51pXXIaA325RROSEWD-29" value="is" style="rhombus;whiteSpace=wrap;html=1;fontStyle=1;startSize=23;" parent="1" vertex="1">
          <mxGeometry x="320" y="60" width="80" height="80" as="geometry" />
        </mxCell>
        <mxCell id="lV51pXXIaA325RROSEWD-30" value="" style="edgeStyle=orthogonalEdgeStyle;rounded=0;orthogonalLoop=1;jettySize=auto;html=1;endArrow=none;startFill=0;" parent="1" source="lV51pXXIaA325RROSEWD-1" target="lV51pXXIaA325RROSEWD-29" edge="1">
          <mxGeometry relative="1" as="geometry">
            <Array as="points">
              <mxPoint x="440" y="260" />
              <mxPoint x="440" y="100" />
            </Array>
          </mxGeometry>
        </mxCell>
        <mxCell id="lV51pXXIaA325RROSEWD-31" style="edgeStyle=orthogonalEdgeStyle;rounded=0;orthogonalLoop=1;jettySize=auto;html=1;strokeColor=default;endArrow=none;startFill=0;" parent="1" source="lV51pXXIaA325RROSEWD-9" target="lV51pXXIaA325RROSEWD-29" edge="1">
          <mxGeometry relative="1" as="geometry" />
        </mxCell>
        <mxCell id="lV51pXXIaA325RROSEWD-34" value="is" style="rhombus;whiteSpace=wrap;html=1;fontStyle=1;startSize=23;" parent="1" vertex="1">
          <mxGeometry x="320" y="250" width="80" height="80" as="geometry" />
        </mxCell>
        <mxCell id="lV51pXXIaA325RROSEWD-39" style="edgeStyle=orthogonalEdgeStyle;rounded=0;orthogonalLoop=1;jettySize=auto;html=1;entryX=0;entryY=0.5;entryDx=0;entryDy=0;endArrow=none;startFill=0;" parent="1" source="lV51pXXIaA325RROSEWD-15" target="lV51pXXIaA325RROSEWD-34" edge="1">
          <mxGeometry relative="1" as="geometry">
            <Array as="points">
              <mxPoint x="260" y="290" />
              <mxPoint x="260" y="290" />
            </Array>
          </mxGeometry>
        </mxCell>
        <mxCell id="lV51pXXIaA325RROSEWD-42" value="" style="edgeStyle=orthogonalEdgeStyle;rounded=0;orthogonalLoop=1;jettySize=auto;html=1;endArrow=none;startFill=0;" parent="1" source="lV51pXXIaA325RROSEWD-1" target="lV51pXXIaA325RROSEWD-34" edge="1">
          <mxGeometry relative="1" as="geometry">
            <Array as="points">
              <mxPoint x="460" y="290" />
              <mxPoint x="460" y="290" />
            </Array>
          </mxGeometry>
        </mxCell>
        <mxCell id="lV51pXXIaA325RROSEWD-45" style="edgeStyle=orthogonalEdgeStyle;rounded=0;orthogonalLoop=1;jettySize=auto;html=1;endArrow=none;startFill=0;" parent="1" source="lV51pXXIaA325RROSEWD-43" edge="1">
          <mxGeometry relative="1" as="geometry">
            <mxPoint x="480" y="320" as="targetPoint" />
            <Array as="points">
              <mxPoint x="420" y="400" />
              <mxPoint x="420" y="320" />
            </Array>
          </mxGeometry>
        </mxCell>
        <mxCell id="lV51pXXIaA325RROSEWD-43" value="is" style="rhombus;whiteSpace=wrap;html=1;fontStyle=1;startSize=23;" parent="1" vertex="1">
          <mxGeometry x="320" y="360" width="80" height="80" as="geometry" />
        </mxCell>
        <mxCell id="lV51pXXIaA325RROSEWD-44" value="" style="edgeStyle=orthogonalEdgeStyle;rounded=0;orthogonalLoop=1;jettySize=auto;html=1;endArrow=none;startFill=0;" parent="1" target="lV51pXXIaA325RROSEWD-43" edge="1">
          <mxGeometry relative="1" as="geometry">
            <mxPoint x="240" y="400" as="sourcePoint" />
          </mxGeometry>
        </mxCell>
        <mxCell id="lV51pXXIaA325RROSEWD-51" style="edgeStyle=orthogonalEdgeStyle;rounded=0;orthogonalLoop=1;jettySize=auto;html=1;entryX=0;entryY=0.75;entryDx=0;entryDy=0;endArrow=none;startFill=0;" parent="1" source="lV51pXXIaA325RROSEWD-49" target="lV51pXXIaA325RROSEWD-1" edge="1">
          <mxGeometry relative="1" as="geometry" />
        </mxCell>
        <mxCell id="lV51pXXIaA325RROSEWD-49" value="is" style="rhombus;whiteSpace=wrap;html=1;fontStyle=1;startSize=23;" parent="1" vertex="1">
          <mxGeometry x="320" y="470" width="80" height="80" as="geometry" />
        </mxCell>
        <mxCell id="lV51pXXIaA325RROSEWD-50" value="" style="edgeStyle=orthogonalEdgeStyle;rounded=0;orthogonalLoop=1;jettySize=auto;html=1;endArrow=none;startFill=0;" parent="1" source="lV51pXXIaA325RROSEWD-21" target="lV51pXXIaA325RROSEWD-49" edge="1">
          <mxGeometry relative="1" as="geometry" />
        </mxCell>
        <mxCell id="lV51pXXIaA325RROSEWD-53" value="0...1" style="text;html=1;align=center;verticalAlign=middle;whiteSpace=wrap;rounded=0;" parent="1" vertex="1">
          <mxGeometry x="450" y="250" width="30" height="10" as="geometry" />
        </mxCell>
        <mxCell id="lV51pXXIaA325RROSEWD-55" value="0...1" style="text;html=1;align=center;verticalAlign=middle;whiteSpace=wrap;rounded=0;" parent="1" vertex="1">
          <mxGeometry x="450" y="280" width="30" height="10" as="geometry" />
        </mxCell>
        <mxCell id="lV51pXXIaA325RROSEWD-61" value="0...1" style="text;html=1;align=center;verticalAlign=middle;whiteSpace=wrap;rounded=0;" parent="1" vertex="1">
          <mxGeometry x="450" y="310" width="30" height="10" as="geometry" />
        </mxCell>
        <mxCell id="lV51pXXIaA325RROSEWD-62" value="0...1" style="text;html=1;align=center;verticalAlign=middle;whiteSpace=wrap;rounded=0;" parent="1" vertex="1">
          <mxGeometry x="450" y="350" width="30" height="10" as="geometry" />
        </mxCell>
        <mxCell id="lV51pXXIaA325RROSEWD-66" value="1...1" style="text;html=1;align=center;verticalAlign=middle;whiteSpace=wrap;rounded=0;" parent="1" vertex="1">
          <mxGeometry x="240" y="85" width="30" height="10" as="geometry" />
        </mxCell>
        <mxCell id="lV51pXXIaA325RROSEWD-72" value="1...1" style="text;html=1;align=center;verticalAlign=middle;whiteSpace=wrap;rounded=0;" parent="1" vertex="1">
          <mxGeometry x="240" y="280" width="30" height="10" as="geometry" />
        </mxCell>
        <mxCell id="lV51pXXIaA325RROSEWD-73" value="1...1" style="text;html=1;align=center;verticalAlign=middle;whiteSpace=wrap;rounded=0;" parent="1" vertex="1">
          <mxGeometry x="240" y="390" width="30" height="10" as="geometry" />
        </mxCell>
        <mxCell id="lV51pXXIaA325RROSEWD-74" value="1...1" style="text;html=1;align=center;verticalAlign=middle;whiteSpace=wrap;rounded=0;" parent="1" vertex="1">
          <mxGeometry x="240" y="545" width="30" height="10" as="geometry" />
        </mxCell>
        <mxCell id="lV51pXXIaA325RROSEWD-79" value="writes" style="rhombus;whiteSpace=wrap;html=1;fontStyle=1;startSize=23;" parent="1" vertex="1">
          <mxGeometry x="760" y="160" width="80" height="80" as="geometry" />
        </mxCell>
        <mxCell id="lV51pXXIaA325RROSEWD-99" style="edgeStyle=orthogonalEdgeStyle;rounded=0;orthogonalLoop=1;jettySize=auto;html=1;entryX=1;entryY=0.5;entryDx=0;entryDy=0;endArrow=none;startFill=0;" parent="1" source="lV51pXXIaA325RROSEWD-89" target="lV51pXXIaA325RROSEWD-1" edge="1">
          <mxGeometry relative="1" as="geometry" />
        </mxCell>
        <mxCell id="lV51pXXIaA325RROSEWD-89" value="reacts" style="rhombus;whiteSpace=wrap;html=1;fontStyle=1;startSize=23;" parent="1" vertex="1">
          <mxGeometry x="760" y="280" width="80" height="80" as="geometry" />
        </mxCell>
        <mxCell id="lV51pXXIaA325RROSEWD-103" style="edgeStyle=orthogonalEdgeStyle;rounded=0;orthogonalLoop=1;jettySize=auto;html=1;endArrow=none;startFill=0;" parent="1" source="lV51pXXIaA325RROSEWD-91" edge="1">
          <mxGeometry relative="1" as="geometry">
            <mxPoint x="640" y="400" as="targetPoint" />
            <Array as="points">
              <mxPoint x="640" y="440" />
            </Array>
          </mxGeometry>
        </mxCell>
        <mxCell id="lV51pXXIaA325RROSEWD-91" value="comments" style="rhombus;whiteSpace=wrap;html=1;fontStyle=1;startSize=23;" parent="1" vertex="1">
          <mxGeometry x="760" y="400" width="80" height="80" as="geometry" />
        </mxCell>
        <mxCell id="lV51pXXIaA325RROSEWD-93" value="0...*" style="text;html=1;align=center;verticalAlign=middle;whiteSpace=wrap;rounded=0;" parent="1" vertex="1">
          <mxGeometry x="930" y="220" width="30" height="10" as="geometry" />
        </mxCell>
        <mxCell id="lV51pXXIaA325RROSEWD-94" value="0...*" style="text;html=1;align=center;verticalAlign=middle;whiteSpace=wrap;rounded=0;" parent="1" vertex="1">
          <mxGeometry x="890" y="310" width="30" height="10" as="geometry" />
        </mxCell>
        <mxCell id="lV51pXXIaA325RROSEWD-95" value="0...*" style="text;html=1;align=center;verticalAlign=middle;whiteSpace=wrap;rounded=0;" parent="1" vertex="1">
          <mxGeometry x="930" y="410" width="30" height="10" as="geometry" />
        </mxCell>
        <mxCell id="lV51pXXIaA325RROSEWD-96" style="edgeStyle=orthogonalEdgeStyle;rounded=0;orthogonalLoop=1;jettySize=auto;html=1;entryX=0.797;entryY=0.004;entryDx=0;entryDy=0;entryPerimeter=0;endArrow=none;startFill=0;" parent="1" source="lV51pXXIaA325RROSEWD-79" target="lV51pXXIaA325RROSEWD-1" edge="1">
          <mxGeometry relative="1" as="geometry" />
        </mxCell>
        <mxCell id="lV51pXXIaA325RROSEWD-97" value="1...1" style="text;html=1;align=center;verticalAlign=middle;whiteSpace=wrap;rounded=0;" parent="1" vertex="1">
          <mxGeometry x="640" y="220" width="30" height="10" as="geometry" />
        </mxCell>
        <mxCell id="lV51pXXIaA325RROSEWD-100" value="0...*" style="text;html=1;align=center;verticalAlign=middle;whiteSpace=wrap;rounded=0;" parent="1" vertex="1">
          <mxGeometry x="680" y="310" width="30" height="10" as="geometry" />
        </mxCell>
        <mxCell id="lV51pXXIaA325RROSEWD-104" value="0...*" style="text;html=1;align=center;verticalAlign=middle;whiteSpace=wrap;rounded=0;" parent="1" vertex="1">
          <mxGeometry x="640" y="400" width="30" height="10" as="geometry" />
        </mxCell>
        <mxCell id="lV51pXXIaA325RROSEWD-106" value="&lt;span style=&quot;font-family: monospace; text-align: left;&quot;&gt;type(like/dislike)&lt;br&gt;created_at&lt;/span&gt;" style="text;html=1;align=center;verticalAlign=middle;whiteSpace=wrap;rounded=0;" parent="1" vertex="1">
          <mxGeometry x="735" y="360" width="130" height="30" as="geometry" />
        </mxCell>
        <mxCell id="lV51pXXIaA325RROSEWD-107" value="&lt;span style=&quot;font-family: monospace; text-align: left;&quot;&gt;comment_id&lt;br&gt;created_at&lt;br&gt;content&lt;/span&gt;" style="text;html=1;align=center;verticalAlign=middle;whiteSpace=wrap;rounded=0;" parent="1" vertex="1">
          <mxGeometry x="735" y="485" width="130" height="50" as="geometry" />
        </mxCell>
        <mxCell id="lV51pXXIaA325RROSEWD-110" style="edgeStyle=orthogonalEdgeStyle;rounded=0;orthogonalLoop=1;jettySize=auto;html=1;endArrow=none;startFill=0;" parent="1" source="lV51pXXIaA325RROSEWD-108" edge="1">
          <mxGeometry relative="1" as="geometry">
            <mxPoint x="1240" y="140" as="targetPoint" />
            <Array as="points">
              <mxPoint x="1240" y="140" />
            </Array>
          </mxGeometry>
        </mxCell>
        <mxCell id="lV51pXXIaA325RROSEWD-108" value="starts" style="rhombus;whiteSpace=wrap;html=1;fontStyle=1;startSize=23;" parent="1" vertex="1">
          <mxGeometry x="1210" y="250" width="60" height="60" as="geometry" />
        </mxCell>
        <mxCell id="lV51pXXIaA325RROSEWD-111" value="0...*" style="text;html=1;align=center;verticalAlign=middle;whiteSpace=wrap;rounded=0;" parent="1" vertex="1">
          <mxGeometry x="1120" y="270" width="30" height="10" as="geometry" />
        </mxCell>
        <mxCell id="lV51pXXIaA325RROSEWD-112" value="1...1" style="text;html=1;align=center;verticalAlign=middle;whiteSpace=wrap;rounded=0;" parent="1" vertex="1">
          <mxGeometry x="1200" y="150" width="30" height="10" as="geometry" />
        </mxCell>
        <mxCell id="lV51pXXIaA325RROSEWD-117" style="edgeStyle=orthogonalEdgeStyle;rounded=0;orthogonalLoop=1;jettySize=auto;html=1;entryX=0.5;entryY=0;entryDx=0;entryDy=0;endArrow=none;startFill=0;" parent="1" source="lV51pXXIaA325RROSEWD-115" target="lV51pXXIaA325RROSEWD-27" edge="1">
          <mxGeometry relative="1" as="geometry">
            <Array as="points">
              <mxPoint x="1240" y="480" />
            </Array>
          </mxGeometry>
        </mxCell>
        <mxCell id="lV51pXXIaA325RROSEWD-115" value="posts" style="rhombus;whiteSpace=wrap;html=1;fontStyle=1;startSize=23;" parent="1" vertex="1">
          <mxGeometry x="1210" y="330" width="60" height="60" as="geometry" />
        </mxCell>
        <mxCell id="lV51pXXIaA325RROSEWD-118" value="0...*" style="text;html=1;align=center;verticalAlign=middle;whiteSpace=wrap;rounded=0;" parent="1" vertex="1">
          <mxGeometry x="1120" y="350" width="30" height="10" as="geometry" />
        </mxCell>
        <mxCell id="lV51pXXIaA325RROSEWD-119" value="1...1" style="text;html=1;align=center;verticalAlign=middle;whiteSpace=wrap;rounded=0;" parent="1" vertex="1">
          <mxGeometry x="1210" y="470" width="30" height="10" as="geometry" />
        </mxCell>
        <mxCell id="lV51pXXIaA325RROSEWD-123" value="" style="edgeStyle=orthogonalEdgeStyle;rounded=0;orthogonalLoop=1;jettySize=auto;html=1;endArrow=none;startFill=0;" parent="1" source="lV51pXXIaA325RROSEWD-120" target="lV51pXXIaA325RROSEWD-122" edge="1">
          <mxGeometry relative="1" as="geometry" />
        </mxCell>
        <mxCell id="lV51pXXIaA325RROSEWD-120" value="Blast Beats" style="swimlane;whiteSpace=wrap;html=1;" parent="1" vertex="1">
          <mxGeometry x="920" y="520" width="200" height="100" as="geometry" />
        </mxCell>
        <mxCell id="lV51pXXIaA325RROSEWD-121" value="&lt;u&gt;&lt;font face=&quot;monospace&quot;&gt;blast_beats_id&lt;br&gt;&lt;/font&gt;&lt;/u&gt;&lt;div&gt;&lt;code data-end=&quot;458&quot; data-start=&quot;451&quot;&gt;points&lt;/code&gt;&lt;/div&gt;&lt;div&gt;&lt;code data-end=&quot;458&quot; data-start=&quot;451&quot;&gt;level&lt;br&gt;&lt;/code&gt;&lt;br&gt;&lt;/div&gt;&lt;div&gt;&lt;font style=&quot;&quot; face=&quot;monospace&quot;&gt;&lt;br&gt;&lt;br&gt;&lt;/font&gt;&lt;/div&gt;" style="text;html=1;align=left;verticalAlign=top;whiteSpace=wrap;rounded=0;" parent="lV51pXXIaA325RROSEWD-120" vertex="1">
          <mxGeometry x="10" y="22.5" width="180" height="67.5" as="geometry" />
        </mxCell>
        <mxCell id="lV51pXXIaA325RROSEWD-122" value="has" style="rhombus;whiteSpace=wrap;html=1;fontStyle=1;startSize=23;" parent="1" vertex="1">
          <mxGeometry x="1000" y="445" width="40" height="40" as="geometry" />
        </mxCell>
        <mxCell id="lV51pXXIaA325RROSEWD-125" value="1...1" style="text;html=1;align=center;verticalAlign=middle;whiteSpace=wrap;rounded=0;" parent="1" vertex="1">
          <mxGeometry x="1020" y="400" width="30" height="10" as="geometry" />
        </mxCell>
        <mxCell id="lV51pXXIaA325RROSEWD-126" value="1...1" style="text;html=1;align=center;verticalAlign=middle;whiteSpace=wrap;rounded=0;" parent="1" vertex="1">
          <mxGeometry x="1020" y="505" width="30" height="10" as="geometry" />
        </mxCell>
        <mxCell id="lV51pXXIaA325RROSEWD-131" style="edgeStyle=orthogonalEdgeStyle;rounded=0;orthogonalLoop=1;jettySize=auto;html=1;endArrow=none;startFill=0;" parent="1" source="lV51pXXIaA325RROSEWD-129" edge="1">
          <mxGeometry relative="1" as="geometry">
            <mxPoint x="1360" y="140" as="targetPoint" />
          </mxGeometry>
        </mxCell>
        <mxCell id="lV51pXXIaA325RROSEWD-129" value="belongs" style="rhombus;whiteSpace=wrap;html=1;" parent="1" vertex="1">
          <mxGeometry x="1320" y="280" width="80" height="80" as="geometry" />
        </mxCell>
        <mxCell id="lV51pXXIaA325RROSEWD-130" style="edgeStyle=orthogonalEdgeStyle;rounded=0;orthogonalLoop=1;jettySize=auto;html=1;entryX=0.801;entryY=0.004;entryDx=0;entryDy=0;entryPerimeter=0;endArrow=none;startFill=0;" parent="1" source="lV51pXXIaA325RROSEWD-129" target="lV51pXXIaA325RROSEWD-27" edge="1">
          <mxGeometry relative="1" as="geometry" />
        </mxCell>
        <mxCell id="lV51pXXIaA325RROSEWD-132" value="1...1" style="text;html=1;align=center;verticalAlign=middle;whiteSpace=wrap;rounded=0;" parent="1" vertex="1">
          <mxGeometry x="1360" y="470" width="30" height="10" as="geometry" />
        </mxCell>
        <mxCell id="lV51pXXIaA325RROSEWD-133" value="0...*" style="text;html=1;align=center;verticalAlign=middle;whiteSpace=wrap;rounded=0;" parent="1" vertex="1">
          <mxGeometry x="1360" y="140" width="30" height="10" as="geometry" />
        </mxCell>
      </root>
    </mxGraphModel>
  </diagram>
</mxfile>
